<?xml version="1.0" encoding="UTF-8"?>
<svg width="40px" height="40px" viewBox="0 0 40 40" version="1.1" xmlns="http://www.w3.org/2000/svg" xmlns:xlink="http://www.w3.org/1999/xlink">
    <!-- Generator: Sketch 48.2 (47327) - http://www.bohemiancoding.com/sketch -->
    <title>Artboard</title>
    <desc>Created with Sketch.</desc>
    <defs></defs>
    <g id="icons" stroke="none" stroke-width="1" fill="none" fill-rule="evenodd">
        <g id="Artboard" fill="#D9D9D9">
            <path d="M22.8275726,23.7703816 L23.7703816,22.8275726 C24.028181,22.5697732 24.028181,22.1425629 23.7703816,21.8847635 L21.8847635,19.9991455 L23.7703816,18.1135274 C24.028181,17.855728 24.028181,17.4285177 23.7703816,17.1707183 L22.8275726,16.2279093 C22.5697732,15.9701099 22.1425629,15.9701099 21.8847635,16.2279093 L19.9991455,18.1135274 L18.1135274,16.2279093 C17.855728,15.9701099 17.4285177,15.9701099 17.1707183,16.2279093 L16.2279093,17.1707183 C15.9701099,17.4285177 15.9701099,17.855728 16.2279093,18.1135274 L18.1135274,19.9991455 L16.2279093,21.8847635 C15.9701099,22.1425629 15.9701099,22.5697732 16.2279093,22.8275726 L17.1707183,23.7703816 C17.4285177,24.028181 17.855728,24.028181 18.1135274,23.7703816 L19.9991455,21.8847635 L21.8847635,23.7703816 C22.1425629,24.028181 22.5697732,24.028181 22.8275726,23.7703816 Z M25.6559997,25.6559997 C22.5329448,28.7790547 17.4653462,28.7790547 14.3422912,25.6559997 C11.2192363,22.5329448 11.2192363,17.4653462 14.3422912,14.3422912 C17.4653462,11.2192363 22.5329448,11.2192363 25.6559997,14.3422912 C28.7790547,17.4653462 28.7790547,22.5329448 25.6559997,25.6559997 Z" id="plus-circle---FontAwesome"></path>
        </g>
    </g>
</svg>