<?xml version="1.0" encoding="UTF-8"?>
<svg width="16px" height="16px" viewBox="0 0 16 16" version="1.1" xmlns="http://www.w3.org/2000/svg" xmlns:xlink="http://www.w3.org/1999/xlink">
    <!-- Generator: Sketch 48.2 (47327) - http://www.bohemiancoding.com/sketch -->
    <title>ic_close</title>
    <desc>Created with Sketch.</desc>
    <defs></defs>
    <g id="icons" stroke="none" stroke-width="1" fill="none" fill-rule="evenodd">
        <g id="ic_close" fill="#2B2B2B">
            <path d="M10.8275726,11.7703816 L11.7703816,10.8275726 C12.028181,10.5697732 12.028181,10.1425629 11.7703816,9.88476355 L9.88476355,7.99914546 L11.7703816,6.11352738 C12.028181,5.85572803 12.028181,5.42851768 11.7703816,5.17071834 L10.8275726,4.2279093 C10.5697732,3.97010995 10.1425629,3.97010995 9.88476355,4.2279093 L7.99914546,6.11352738 L6.11352738,4.2279093 C5.85572803,3.97010995 5.42851768,3.97010995 5.17071834,4.2279093 L4.2279093,5.17071834 C3.97010995,5.42851768 3.97010995,5.85572803 4.2279093,6.11352738 L6.11352738,7.99914546 L4.2279093,9.88476355 C3.97010995,10.1425629 3.97010995,10.5697732 4.2279093,10.8275726 L5.17071834,11.7703816 C5.42851768,12.028181 5.85572803,12.028181 6.11352738,11.7703816 L7.99914546,9.88476355 L9.88476355,11.7703816 C10.1425629,12.028181 10.5697732,12.028181 10.8275726,11.7703816 Z M13.6559997,13.6559997 C10.5329448,16.7790547 5.46534616,16.7790547 2.34229121,13.6559997 C-0.780763738,10.5329448 -0.780763738,5.46534616 2.34229121,2.34229121 C5.46534616,-0.780763738 10.5329448,-0.780763738 13.6559997,2.34229121 C16.7790547,5.46534616 16.7790547,10.5329448 13.6559997,13.6559997 Z" id="plus-circle---FontAwesome"></path>
        </g>
    </g>
</svg>