<?xml version="1.0" encoding="UTF-8"?>
<svg width="14px" height="14px" viewBox="0 0 14 14" version="1.1" xmlns="http://www.w3.org/2000/svg" xmlns:xlink="http://www.w3.org/1999/xlink">
    <!-- Generator: Sketch 48.2 (47327) - http://www.bohemiancoding.com/sketch -->
    <title>ic_heart_outline</title>
    <desc>Created with Sketch.</desc>
    <defs></defs>
    <g id="icons" stroke="none" stroke-width="1" fill="none" fill-rule="evenodd">
        <g id="ic_heart_outline" stroke="#FFCC2F">
            <path d="M6.99994495,12.4963105 L11.8573841,7.81832161 C11.937069,7.74299538 12.0271753,7.6536981 12.1418238,7.52929767 C12.3318846,7.32307035 12.5197621,7.0934326 12.6948303,6.84349544 C13.2011986,6.12057552 13.5,5.37509789 13.5,4.65625 C13.5,2.64649441 12.328543,1.5 10.265625,1.5 C9.31185808,1.5 8.27663194,2.12967364 7.35129433,3.04329811 L7,3.39014567 L6.64870567,3.04329811 C5.72336806,2.12967364 4.68814192,1.5 3.734375,1.5 C1.67145697,1.5 0.5,2.64649441 0.5,4.65625 C0.5,5.88519997 1.34644486,7.11141139 2.12840315,7.79641019 L6.99994495,12.4963105 Z M7.00900517,12.5050515 L7.00980339,12.5058216 C7.0095363,12.5055545 7.00927003,12.5052979 7.00900517,12.5050515 Z" id="heart---FontAwesome"></path>
        </g>
    </g>
</svg>