<?xml version="1.0" encoding="UTF-8"?>
<svg width="40px" height="40px" viewBox="0 0 40 40" version="1.1" xmlns="http://www.w3.org/2000/svg" xmlns:xlink="http://www.w3.org/1999/xlink">
    <!-- Generator: Sketch 48.2 (47327) - http://www.bohemiancoding.com/sketch -->
    <title>ic_search</title>
    <desc>Created with Sketch.</desc>
    <defs></defs>
    <g id="icons" stroke="none" stroke-width="1" fill="none" fill-rule="evenodd">
        <g id="ic_search" fill="#2B2B2B">
            <path d="M23.0769231,18.7692308 C23.0769231,16.3942308 21.1442308,14.4615385 18.7692308,14.4615385 C16.3942308,14.4615385 14.4615385,16.3942308 14.4615385,18.7692308 C14.4615385,21.1442308 16.3942308,23.0769231 18.7692308,23.0769231 C21.1442308,23.0769231 23.0769231,21.1442308 23.0769231,18.7692308 Z M28,26.7692308 C28,27.4423077 27.4423077,28 26.7692308,28 C26.4423077,28 26.125,27.8653846 25.9038462,27.6346154 L22.6057692,24.3461538 C21.4807692,25.125 20.1346154,25.5384615 18.7692308,25.5384615 C15.0288462,25.5384615 12,22.5096154 12,18.7692308 C12,15.0288462 15.0288462,12 18.7692308,12 C22.5096154,12 25.5384615,15.0288462 25.5384615,18.7692308 C25.5384615,20.1346154 25.125,21.4807692 24.3461538,22.6057692 L27.6442308,25.9038462 C27.8653846,26.125 28,26.4423077 28,26.7692308 Z" id="search---FontAwesome"></path>
        </g>
    </g>
</svg>