<?xml version="1.0" encoding="UTF-8"?>
<svg width="1300px" height="998px" viewBox="0 0 1300 998" version="1.1" xmlns="http://www.w3.org/2000/svg" xmlns:xlink="http://www.w3.org/1999/xlink">
    <!-- Generator: Sketch 48.2 (47327) - http://www.bohemiancoding.com/sketch -->
    <title>Artboard</title>
    <desc>Created with Sketch.</desc>
    <defs>
        <linearGradient x1="97.4397719%" y1="48.9237883%" x2="1.07621173%" y2="48.9237883%" id="linearGradient-1">
            <stop stop-color="#CCB17A" stop-opacity="0" offset="0%"></stop>
            <stop stop-color="#996600" offset="100%"></stop>
        </linearGradient>
    </defs>
    <g id="icons" stroke="none" stroke-width="1" fill="none" fill-rule="evenodd" fill-opacity="0.400000006">
        <g id="Artboard" fill="url(#linearGradient-1)" fill-rule="nonzero">
            <path d="M731.979003,731.675498 C838.422966,718.585855 937.70945,790.74369 956.6391,897.603202 C976.180902,1008.04118 902.510661,1113.41751 792.040615,1132.98135 C705.468074,1148.30753 622.215286,1106.18996 580.753702,1034.14984 C552.735936,1049.61727 521.822218,1060.8706 488.577608,1066.75623 C326.310012,1095.47811 171.458884,987.229587 142.734789,824.974518 C114.010694,662.719448 222.267571,507.903817 384.535167,479.181938 C546.802763,450.460061 701.630346,558.685039 730.354443,720.940109 C730.99014,724.518571 731.484571,728.097036 731.979003,731.675498 Z M1157.81683,65.4205121 C1184.56737,216.586322 1083.72935,360.811444 932.589944,387.562499 C781.427013,414.337082 637.204638,313.497134 610.430566,162.331325 C583.68002,11.1890428 684.518046,-133.059608 835.680977,-159.810662 C986.820379,-186.585244 1131.04275,-85.7217698 1157.81683,65.4205121 Z M816.262344,605.28503 C772.728861,612.984321 731.196645,583.953046 723.497645,540.417906 C715.775102,496.882765 744.828817,455.34897 788.362302,447.649679 C831.872241,439.950386 873.404457,468.981661 881.127001,512.516802 C888.826,556.051942 859.795829,597.585737 816.262344,605.28503 Z" id="10" transform="translate(650.116838, 486.000000) rotate(-90.000000) translate(-650.116838, -486.000000) "></path>
        </g>
    </g>
</svg>